<mxfile host="app.diagrams.net" modified="2023-06-27T21:23:16.610Z" agent="Mozilla/5.0 (Windows NT 10.0; Win64; x64; rv:109.0) Gecko/20100101 Firefox/114.0" version="21.5.0" etag="FVhLClPk2eILIbQb__Uu" type="github">
  <diagram name="Page-1" id="7QvHd-kBpCtH6GkJ-Kbb">
    <mxGraphModel>
      <root>
        <mxCell id="0" />
        <mxCell id="1" parent="0" />
      </root>
    </mxGraphModel>
  </diagram>
</mxfile>
